<?xml version="1.0" encoding="utf-8"?>
<svg xmlns="http://www.w3.org/2000/svg" viewBox="0 0 26 26" width="52" height="52">
  <path d="M17.53125 1C15.734375 1 14.164063 1.925781 13.46875 3.6875C14.929688 4.890625 15.9375 6.753906 15.9375 9.28125C15.9375 11.976563 14.664063 14.441406 13.34375 16.03125C15.449219 16.828125 18.746094 18.425781 19.6875 20.875C23.003906 20.691406 25.96875 20.023438 25.96875 18.125L25.96875 17.5C25.96875 15.761719 22.933594 14.058594 20.25 13.15625C20.128906 13.117188 19.359375 12.929688 19.84375 11.4375C21.105469 10.121094 21.96875 7.992188 21.96875 5.90625C21.96875 2.695313 19.972656 1 17.53125 1 Z M 8.96875 4.09375C6.367188 4.09375 4.125 5.871094 4.125 9.28125C4.125 11.511719 5.183594 13.789063 6.53125 15.1875C7.054688 16.585938 6.101563 17.582031 5.90625 17.65625C3.1875 18.652344 0 20.453125 0 22.25L0 22.9375C0 25.386719 4.671875 25.9375 9 25.9375C13.335938 25.9375 17.96875 25.386719 17.96875 22.9375L17.96875 22.25C17.96875 20.398438 14.761719 18.617188 11.90625 17.65625C11.773438 17.613281 10.953125 16.742188 11.46875 15.15625L11.4375 15.15625C12.777344 13.753906 13.9375 11.503906 13.9375 9.28125C13.9375 5.871094 11.566406 4.09375 8.96875 4.09375Z" fill="#9797B8" />
</svg>